<?xml version="1.0" encoding="utf-8" ?><svg xmlns="http://www.w3.org/2000/svg" xmlns:xlink="http://www.w3.org/1999/xlink" width="266" height="684" viewBox="0 0 266 684"><clipPath id="cl_3"><rect width="266.41385" height="684.01251"/></clipPath><g clip-path="url(#cl_3)"><path fill="#31C20A" transform="scale(0.662721 0.662803)" d="M324.439 51.0399C344.208 70.4273 377.609 195.779 384.809 225.801C386.78 234.023 392.28 276.172 393.676 278.575C395.233 302.347 395.138 323.827 391.883 347.546C388.963 381.733 374.007 428.375 361.118 460.289C356.405 471.959 330.239 531.03 321.164 534.773C317.324 530.661 311.51 518.762 308.647 513.444C291.236 481.105 271.899 437.823 262.4 402.88C254.932 375.405 251.96 316.625 255.1 287.284C261.901 223.736 282.78 150.81 306.831 91.4792C309.914 83.8751 320.897 56.9794 324.439 51.0399Z"/><path transform="scale(0.662721 0.662803)" d="M277.467 565.88C281.159 564.691 283.973 559.203 287.029 557.21C306.136 544.751 342.119 545.31 354.099 567.575C355.194 581.736 353.35 595.611 352.429 609.771C351.601 622.504 351.264 635.297 350.476 647.996C344.878 714.286 348.833 785.686 348.748 852.419C348.711 881.137 356.032 913.073 356.237 942.219C338.75 966.674 296.65 966.082 279.041 942.229C281.306 881.035 289.54 820.862 286.715 759.282C285.981 743.283 287.628 722.452 285.009 706.987C287.369 696.395 281.512 628.177 280.075 615.388C280.612 609.644 279.215 595.082 278.635 589.204C277.862 581.992 276.294 572.762 277.467 565.88Z"/><path fill="#0A7E1D" transform="scale(0.662721 0.662803)" d="M85.6789 267.129C92.5825 269.139 102.441 279.535 108.218 284.584C148.249 319.576 187.201 360.067 219.899 402.027C246.141 435.703 262.077 481.8 269.248 523.446C270.063 528.181 269.717 532.298 272.906 536.276C258.999 533.556 201.794 489.215 188.165 477.369C179.274 469.605 170.833 461.34 162.883 452.615C150.662 439.326 140.028 424.661 131.198 408.914C115.573 380.775 84.3583 298.856 85.6789 267.129Z"/><path transform="scale(0.662721 0.662803)" d="M400.668 953.343C416.852 951.706 450.487 952.56 468.129 952.539L603.017 952.841L969.641 952.785C974.262 952.814 979.765 952.391 981.962 956.962L980.778 959.183C971.023 960.753 936.42 959.957 924.527 959.933L809.841 959.786L528.825 959.822C490.865 959.811 452.864 959.691 414.904 960.064C410.853 960.104 406.202 959.825 402.585 957.945C400.374 955.148 400.71 956.341 400.668 953.343Z"/><path fill="#FEFEFE" fill-opacity="0.011764706" transform="scale(0.662721 0.662803)" d="M354.099 567.575L355.546 566.798C362.473 573.148 358.283 590.741 357.647 600.115C356.767 613.078 358.871 653.277 351.5 662.243C350.003 659.336 350.507 651.748 350.476 647.996C351.264 635.297 351.601 622.504 352.429 609.771C353.35 595.611 355.194 581.736 354.099 567.575Z"/><path fill="#FEFEFE" fill-opacity="0.011764706" transform="scale(0.662721 0.662803)" d="M285.009 706.987L283.841 705.671C283.245 695.435 279.778 680.739 279.203 672.012C278.593 662.766 277.031 621.75 280.075 615.388C281.512 628.177 287.369 696.395 285.009 706.987Z"/><path fill="#FEFEFE" fill-opacity="0.011764706" transform="scale(0.662721 0.662803)" d="M393.676 278.575C404.287 286.765 400.253 330.671 396.932 343.002C394.124 346.238 394.265 344.143 391.883 347.546C395.138 323.827 395.233 302.347 393.676 278.575Z"/><path fill="#FEFEFE" fill-opacity="0.0078431377" transform="scale(0.662721 0.662803)" d="M278.635 589.204L278.07 592.094C271.719 589.881 270.562 575.057 271.687 569.259C274.207 566.096 273.125 567.037 277.467 565.88C276.294 572.762 277.862 581.992 278.635 589.204Z"/></g></svg>