<?xml version="1.0" encoding="utf-8" ?><svg xmlns="http://www.w3.org/2000/svg" xmlns:xlink="http://www.w3.org/1999/xlink" width="1116" height="311" viewBox="0 0 1116 311"><path transform="scale(0.303673 0.303711)" d="M2668.16 537.453C2694.68 536.702 2723.86 537.52 2748.22 547.227C2825.07 577.85 2833.03 642.751 2831.64 715.769C2830.57 772.49 2830.17 832.967 2837.15 889.228C2839.73 910.072 2849.48 928.08 2857.86 947.023C2835.95 959.752 2798.82 981.04 2779.65 954.1C2771.37 942.466 2771.9 934.468 2767.5 921.431C2754.2 932.853 2739.66 942.753 2724.16 950.945C2667.03 980.675 2596.21 982.39 2543.14 941.501C2529.72 931.17 2520.83 917.248 2513.12 902.371C2491.19 852.094 2493.87 797.406 2532.6 756.232C2579.61 705.257 2649.04 696.114 2714.82 697.375C2721.97 697.512 2761.28 700.817 2766.6 697.242C2771.13 694.203 2768.33 673.757 2767.01 667.375C2762.5 645.575 2756.48 620.806 2735.23 609.142C2694.44 583.931 2631.31 587.756 2591.28 613.123C2581.44 619.353 2565.23 642.576 2560.21 643.494C2553.58 642.613 2551.22 639.73 2546.08 635.759C2526.79 620.878 2530.89 590.501 2547.79 574.374C2580.05 543.588 2625.43 538.785 2668.16 537.453ZM2642.76 911.726C2687.24 915.575 2726.92 900.587 2760.93 872.108C2762.68 870.65 2764.36 869.126 2765.99 867.54C2766.06 830.627 2767.08 791.039 2766.56 754.523C2748.68 752.598 2714.29 748.262 2697.66 749.444C2659.98 751.471 2615.16 755.322 2588.28 784.957C2561.64 814.327 2562.21 864.767 2592.85 891.162C2608.44 904.598 2622.74 909.012 2642.76 911.726Z"/><path transform="scale(0.303673 0.303711)" d="M3326.98 813.831C3326.33 816.855 3327.9 820.644 3328.78 823.549C3351.17 897.566 3439.35 923.334 3508.37 907.05C3517.07 905.003 3525.61 902.355 3533.94 899.125C3543.57 895.358 3568.83 880.844 3576.45 883.03C3581.8 886.387 3581.91 889.532 3584.69 894.541C3599.93 922.017 3584.71 946.761 3555.93 957.35C3499.62 978.064 3422.04 975.023 3366.58 953.385C3322.16 936.05 3286.65 901.896 3268.25 858.092C3248.61 812.934 3246.5 751.554 3255.4 703.364C3257.94 689.603 3263.36 677.054 3268.13 664.263C3286.41 615.24 3326.78 571.187 3375.69 551.25C3421.93 532.405 3484.78 530.337 3531.69 549.961C3567.15 564.905 3595.16 593.421 3609.46 629.146C3619.95 654.818 3621.59 687.597 3611.12 713.5C3592.35 759.934 3536.96 764.885 3493.45 767.412C3448.07 770.048 3401.48 769.524 3356.28 764.784C3349.4 764.06 3323.61 759.556 3318.46 761.663L3318.23 763.699C3318.83 776.341 3319.69 803.417 3326.98 813.831ZM3324.81 710.046C3351.33 715.635 3404.13 716.834 3431.25 717.205C3452.78 717.409 3505.73 717.959 3525.37 711.407C3530.52 709.701 3535.21 706.826 3539.07 703.009C3562.77 679.53 3546.48 636.005 3525.55 616.029C3504.26 595.708 3475.81 588.402 3446.88 589.411C3411.29 591.748 3385.29 599.325 3361.04 627.043C3339.75 651.375 3327.98 677.879 3324.81 710.046Z"/><path transform="scale(0.303673 0.303711)" d="M1430.69 537.403C1500.14 527.176 1587.44 564.629 1607.11 636.124C1655.24 811.051 1413.77 765.529 1316.96 762.024C1312.66 763.12 1313 770.913 1313.32 774.361C1316.63 810.569 1326.88 851.157 1355.66 875.291C1406.85 918.231 1479.09 920.26 1537.58 895.101C1547.86 890.185 1559.42 884.28 1570.06 880.585C1580.69 896.998 1594.25 918.165 1579.24 935.7C1558.55 959.878 1529.83 965.204 1500.33 968.869C1371.83 983.752 1260.44 929.811 1246.47 790.658C1233.99 666.372 1297.46 550.687 1430.69 537.403ZM1429.14 717.922C1451.99 717.79 1474.8 717.24 1497.56 715.148C1510.66 713.893 1525.13 713.072 1534.77 702.78C1557.57 678.437 1541.72 636.407 1520.88 616.004C1499.69 595.272 1469.49 588.813 1440.69 589.407C1371.74 593.891 1332.76 634.731 1320.02 701.611C1316.85 718.214 1416.72 718.003 1429.14 717.922Z"/><path transform="scale(0.303673 0.303711)" d="M565.39 581.444C574.137 578.009 587.459 571.553 595.814 567.058C662.205 531.342 748.493 519.989 808.592 575.017C856.923 619.27 854.676 684.913 854.955 745.986C855.017 773.021 855.536 800.053 856.51 827.071C856.932 840.974 857.236 855.402 858.199 869.246C858.856 878.697 860.671 888.86 861.641 898.358C864.853 920.987 870.876 929.819 877.316 949.438C856.473 961.091 797.444 984.323 786.788 948.643C781.52 931.001 783.931 903.335 784.324 884.506C785.209 843.579 785.667 802.643 785.699 761.706C785.73 735.781 786.793 704.104 782.323 679.169C779.711 664.207 774.352 649.858 766.515 636.848C746.862 604.765 719.965 596.907 684.557 597.6C639.956 598.472 602.614 616.036 565.517 638.981C565.623 683.071 564.416 726.825 564.488 770.868C564.521 791.349 563.876 814.627 565.403 834.826C566.026 860.373 566.213 880.801 571.023 905.965C571.42 917.21 579.654 940.116 583.81 950.36C564.317 962.068 532.981 970.209 510.137 966.568C496.033 964.32 492.779 949.509 490.318 937.822C487.174 918.924 488.716 892.995 489.902 873.653C494.706 813.819 495.1 752.044 495.164 692.07C495.201 657.369 496.92 622.142 490.199 588.181C487.409 574.081 481.03 558.515 481.83 544.275C482.595 541.833 487.416 539.593 489.436 539.317C530.549 533.698 553.581 537.448 565.39 581.444Z"/><path fill="#090" transform="scale(0.303673 0.303711)" d="M2334.81 538.409C2348.77 537.51 2363.13 538.406 2376.75 537.875C2436.49 535.549 2459.2 573.061 2416.78 621.202C2411.86 618.722 2406.88 616.356 2401.85 614.104C2366.23 598.568 2328.3 599.086 2292.26 613.422C2256.36 627.939 2227.61 655.99 2212.21 691.521C2193.89 734.138 2192.14 787.114 2209.43 830.434C2221.55 860.884 2245.32 885.24 2275.47 898.104C2306.71 911.487 2356.58 911.091 2389.69 902.532C2402.7 897.838 2414.08 889.823 2426.59 884.104C2440.27 877.849 2441.53 892.432 2445.15 902.813C2457.6 926.708 2434.31 953.248 2411.89 961.181C2288.82 1004.59 2129.57 939.208 2124.14 795.086C2121.64 728.684 2135.09 676.085 2178.46 624.798C2217.89 578.167 2273.22 543.617 2334.81 538.409Z"/><path transform="scale(0.303673 0.303711)" d="M1016.25 573.059C1011.66 532.368 1015.68 491.979 1001.95 453.071C1001.04 450.517 999.778 445.123 1001.2 442.715C1006.41 435.216 1020.25 430.623 1028.78 428.554C1063 420.248 1077.1 418.891 1086.51 455.148C1087.17 474.184 1087.52 496.895 1085.6 515.885C1083.76 533.77 1083.67 550.814 1083.61 568.778C1111.8 568.68 1139.67 562.369 1167.5 564.212C1179.25 564.989 1188.4 574.51 1187.79 586.364C1187.13 599.086 1180.84 609.144 1176.16 620.692L1114.46 619.131C1106.57 618.928 1089.42 618.922 1082.2 617.893L1077.64 618.615C1075.55 621.621 1075.31 641.604 1075 646.762C1071.79 699.645 1070.33 752.619 1070.63 805.598C1070.87 824.478 1070.3 861.072 1077.18 877.367C1081.9 900.572 1107.62 911.543 1128.86 905.393C1143.29 901.212 1146.5 899.067 1150.78 915.129C1153.45 925.451 1151.87 936.412 1146.39 945.559C1127.04 977.397 1070.23 976.765 1042.04 958.872C1020.39 945.127 1009.13 921.089 1005.55 896.714C1004.76 891.349 1003.97 884.381 1002.68 879.245C1000.09 858.214 1001.63 804.772 1002.5 782.522C1003.73 761.574 1005.4 738.355 1005.06 717.511C1006.34 708.101 1007.15 686.598 1007.6 676.79C1008.23 662.986 1010.06 640.173 1009.32 627.137C1007.36 624.706 1007.87 625.446 1003.79 624.991C987.626 626.086 965.082 625.666 949.849 620.947C945.639 616.124 943.322 612.008 943.051 605.459C942.727 597.636 944.474 582.604 950.315 577.02C956.566 571.044 1005.8 573.207 1016.25 573.059Z"/><path transform="scale(0.303673 0.303711)" d="M1696.63 357.13C1728.67 340.842 1745.97 336.294 1781.64 342.038C1790.01 352.986 1790.52 362.454 1792.38 375.747C1794 391.036 1793.57 403.984 1793.18 419.217C1793.09 422.61 1792.58 435.417 1792.88 437.928C1792.2 444.149 1790.11 495.021 1790.87 499.63C1789.81 511.898 1789.82 524.631 1789.44 536.959C1786.32 639.56 1785.49 742.215 1787.69 844.841C1787.93 855.564 1789.38 866.569 1790.46 877.264C1791.95 900.544 1800.14 922.178 1804.55 944.778C1805.74 950.842 1799.15 954.309 1794.31 956.339C1772.58 965.458 1741.87 975.817 1721.65 957.863C1715.34 952.258 1713.14 931.383 1712.59 923.169C1711.27 890.4 1713.06 851.468 1714.15 818.468C1715.62 774.577 1716.41 730.665 1716.52 686.749L1717.91 518.902C1717.91 485.06 1717.86 446.848 1713.76 413.156C1711.81 397.182 1702.89 372.537 1696.63 357.13Z"/><path fill="#090" transform="scale(0.303673 0.303711)" d="M309.614 53.8633C310.959 54.8237 312.247 55.8603 313.473 56.9679C319.545 62.3943 329.815 74.9589 335.431 81.7561C375.487 130.236 401.813 190.425 405.667 253.626C409.694 319.67 389.714 391.292 355.256 447.652C348.078 459.391 335.037 474.246 325.559 484.621C324.634 485.62 323.702 486.611 322.761 487.595C287.183 524.903 282.288 519.473 267.803 469.574C232.361 347.483 301.587 225.497 308.296 103.316C309.227 86.3571 308.724 69.8844 309.614 53.8633Z"/><path transform="scale(0.303673 0.303711)" d="M3032.87 627.342L3033.23 627.065C3041.47 620.475 3047.63 610.1 3055.04 602.396C3083.11 573.133 3116.39 539.509 3160.51 543.891C3188.65 546.686 3210.62 570.859 3207.05 599.43C3204.2 622.238 3188.78 637.75 3170.12 648.999C3167.05 639.074 3155.82 622.725 3146.74 618.561C3103.39 598.685 3051.97 666.066 3036.93 696.239L3036.51 697.108L3037.51 814.83C3038.44 842.78 3039.21 866.851 3043.87 894.471L3043.96 895.228C3049.96 943.369 3090.25 954.834 3011.44 966.542C2966.86 973.167 2964.21 953.618 2962.67 914.991C2963.24 891.512 2965.53 864.996 2965.39 842.121C2966.19 838.422 2966.04 835.285 2966.03 831.513C2968.09 816.776 2968.02 781.525 2968.36 765.013C2969.28 731.402 2969.39 697.775 2968.71 664.159C2968.26 633.453 2968.88 615.784 2963.78 585.49L2963.69 584.824C2962.41 575.362 2954.38 555.646 2956.82 548.553C2962.58 542.774 2986.08 543.758 2994.56 543.536C3024.25 542.762 3035.5 571.44 3034.92 596.628C3034.68 607.092 3032.75 617.395 3032.87 627.342Z"/><path transform="scale(0.303673 0.303711)" d="M1939.91 736.35C1941.92 697.278 1942.03 648.882 1937.22 609.894C1936.31 602.532 1932.38 592.841 1930.74 586.2C1928.78 578.243 1920.58 563.257 1928.01 558.171C1944.33 547.007 1974.87 542.833 1994.34 543.798C2002 544.178 2006.73 547.687 2011.36 552.644C2017.87 559.626 2018.91 575.854 2018.96 585.513C2019.07 608.584 2018.04 633.868 2016.98 657.148C2014.09 720.577 2010.97 783.951 2013.9 847.501C2014.8 867.09 2020.03 893.55 2024.31 913.006C2026.8 924.349 2030.81 935.101 2032.28 946.801C2024.87 961.925 1968.96 973.34 1953.53 964.103C1947.06 960.233 1943.43 956.962 1938.8 950.966L1938.59 949.236C1935.99 879.036 1942.45 806.212 1939.91 736.35Z"/><path transform="scale(0.303673 0.303711)" d="M278.147 748.403C280.254 704.371 281.078 659.585 275.125 615.692C273.656 604.858 258.371 563.321 267.164 557.635C285.601 545.711 324.669 539.158 345.517 547.276C361.245 566.512 356.502 597.357 355.512 621.199L352.247 689.738C351.025 716.128 351.642 743.143 351.52 769.587C351.296 817.992 350.952 866.76 361.321 914.305C363.898 926.125 368.791 937.931 371.104 949.54C352.394 959.637 316.937 971.682 294.789 966.501C288.055 964.926 281.059 956.739 275.612 953.76C274.439 948.04 275.919 923.049 275.953 915.642C275.946 878.206 276.313 840.77 277.056 803.341C277.288 790.975 279.064 758.147 278.147 748.403Z"/><path fill="#090" transform="scale(0.303673 0.303711)" d="M108.466 329.305C185.384 334.514 239.464 394.885 240.002 470.071C240.061 478.314 242.716 520.112 239.455 524.912L237.355 524.337C222.377 513.016 201.944 491.706 187.627 478.608C166.73 459.489 149.664 445.399 133.066 421.658C116.409 397.831 110.643 376.789 105.552 348.479C104.67 343.579 102.394 336.678 103.208 332.014C105.029 329.424 104.562 330.196 108.466 329.305Z"/><path transform="scale(0.303673 0.303711)" d="M1976.94 362.302C2039.71 358.086 2058.3 450.971 1980.25 466.828C1966.7 467.838 1954.86 466.449 1943.4 458.077C1933.57 450.881 1927.1 439.993 1925.47 427.921C1920.85 395.895 1945.64 366.782 1976.94 362.302Z"/><path fill="white" fill-opacity="0.019607844" transform="scale(0.303673 0.303711)" d="M1790.46 877.264C1789.38 866.569 1787.93 855.564 1787.69 844.841C1785.49 742.215 1786.32 639.56 1789.44 536.959C1789.82 524.631 1789.81 511.898 1790.87 499.63C1793.28 524.457 1792.53 559.727 1792.51 585.098L1791.49 743.403C1791.48 765.393 1795.45 859.508 1791.22 874.043C1790.91 875.096 1790.7 876.194 1790.46 877.264Z"/><path fill="white" fill-opacity="0.011764706" transform="scale(0.303673 0.303711)" d="M1077.18 877.367C1070.3 861.072 1070.87 824.478 1070.63 805.598C1070.33 752.619 1071.79 699.645 1075 646.762C1075.31 641.604 1075.55 621.621 1077.64 618.615L1082.2 617.893C1082.07 633.106 1079 638.954 1078.45 651.734C1077.63 670.851 1078.78 690.11 1077.28 709.715C1076.62 718.348 1073.59 725.413 1073.55 730.103C1073.36 752.931 1073.38 777.568 1073.57 800.264C1073.69 814.596 1081.45 867.48 1077.18 877.367Z"/><path fill="white" fill-opacity="0.011764706" transform="scale(0.303673 0.303711)" d="M275.612 953.76L271.549 953.231L270.645 951.957C270.628 925.426 268.762 758.673 278.147 748.403C279.064 758.147 277.288 790.975 277.056 803.341C276.313 840.77 275.946 878.206 275.953 915.642C275.919 923.049 274.439 948.04 275.612 953.76Z"/><path fill="white" fill-opacity="0.011764706" transform="scale(0.303673 0.303711)" d="M1712.59 923.169C1712.64 925.055 1712.57 924.997 1711.75 926.597L1710.01 926.257C1709.27 925.503 1707.63 923.879 1707.51 922.883C1704.34 896.247 1709.43 867.32 1710.38 841.968C1711.63 808.651 1709.59 774.55 1710.71 741.159C1711.12 728.77 1713.66 716.729 1714.42 704.284C1714.69 699.826 1713.95 687.461 1715.36 684.957L1716.52 686.749C1716.41 730.665 1715.62 774.577 1714.15 818.468C1713.06 851.468 1711.27 890.4 1712.59 923.169Z"/><path fill="white" fill-opacity="0.011764706" transform="scale(0.303673 0.303711)" d="M1938.59 949.236C1937.53 951.352 1938.22 950.661 1935.84 951.659C1934.55 950.605 1933.52 949.103 1933.48 947.347C1932.32 892.165 1933.62 837.191 1937.04 782.088C1937.51 774.362 1937.01 740.15 1939.91 736.35C1942.45 806.212 1935.99 879.036 1938.59 949.236Z"/><path fill="white" fill-opacity="0.011764706" transform="scale(0.303673 0.303711)" d="M2966.03 831.513C2962.29 823.39 2967.8 710.918 2965.48 691.806C2963.98 679.516 2960.9 593.295 2963.78 585.49C2968.88 615.784 2968.26 633.453 2968.71 664.159C2969.39 697.775 2969.28 731.402 2968.36 765.013C2968.02 781.525 2968.09 816.776 2966.03 831.513Z"/><path fill="white" fill-opacity="0.015686275" transform="scale(0.303673 0.303711)" d="M1002.68 879.245L1002 880.584L1000.64 880.845C1000.07 880.262 999.705 879.874 999.336 879.139C994.622 869.761 995.633 799.272 999.119 790.836C1001.75 784.467 999.725 778.559 1001.1 772.035L1001.9 772.018C1002.73 774.461 1002.5 779.689 1002.5 782.522C1001.63 804.772 1000.09 858.214 1002.68 879.245Z"/><path fill="white" fill-opacity="0.011764706" transform="scale(0.303673 0.303711)" d="M1003.79 624.991C1007.87 625.446 1007.36 624.706 1009.32 627.137C1010.06 640.173 1008.23 662.986 1007.6 676.79C1007.15 686.598 1006.34 708.101 1005.06 717.511C1000.78 708.412 1005.31 639.99 1003.79 624.991Z"/><path fill="white" fill-opacity="0.0078431377" transform="scale(0.303673 0.303711)" d="M3037.51 814.83C3037.48 811.653 3036.88 804.943 3038.51 802.753C3039.89 804.901 3039.59 814.471 3040.14 817.905C3042.42 831.998 3049.96 882.214 3043.87 894.471C3039.21 866.851 3038.44 842.78 3037.51 814.83Z"/><path fill="white" fill-opacity="0.011764706" transform="scale(0.303673 0.303711)" d="M856.51 827.071C856.478 823.766 855.838 815.972 857.506 813.762C862.207 823.87 866.462 890.15 861.641 898.358C860.671 888.86 858.856 878.697 858.199 869.246C857.236 855.402 856.932 840.974 856.51 827.071Z"/><path fill="white" fill-opacity="0.011764706" transform="scale(0.303673 0.303711)" d="M1792.38 375.747L1792.92 372.462L1793.95 372.543C1794.37 374.516 1798.44 391.595 1798.44 391.532C1799.07 406.139 1801.12 436.408 1793.91 448.954C1793.65 446.447 1793.28 439.814 1792.88 437.928C1792.58 435.417 1793.09 422.61 1793.18 419.217C1793.57 403.984 1794 391.036 1792.38 375.747Z"/><path fill="white" fill-opacity="0.011764706" transform="scale(0.303673 0.303711)" d="M565.403 834.826L565.717 831.214L566.796 830.973C571.954 840.015 574.934 896.878 571.023 905.965C566.213 880.801 566.026 860.373 565.403 834.826Z"/><path fill="white" fill-opacity="0.011764706" transform="scale(0.303673 0.303711)" d="M2962.67 914.991C2962.65 917.946 2963.09 923.162 2961.49 925.242C2957.74 920.631 2959.96 874.591 2959.39 865.7C2958.92 858.5 2960.64 847.957 2965.39 842.121C2965.53 864.996 2963.24 891.512 2962.67 914.991Z"/><path fill="white" fill-opacity="0.015686275" transform="scale(0.303673 0.303711)" d="M1086.51 455.148C1095.86 466.378 1092.89 493.601 1090.47 507.527C1089.98 510.357 1087.23 510.702 1087.31 516.213L1085.6 515.885C1087.52 496.895 1087.17 474.184 1086.51 455.148Z"/><path fill="white" fill-opacity="0.011764706" transform="scale(0.303673 0.303711)" d="M490.318 937.822C490.145 937.506 489.972 937.19 489.8 936.874C480.245 927.084 481.688 883.06 489.902 873.653C488.716 892.995 487.174 918.924 490.318 937.822Z"/><path fill="white" fill-opacity="0.011764706" transform="scale(0.303673 0.303711)" d="M3318.23 763.699C3327.21 770.942 3324.71 793.318 3325.91 804.138C3326.16 806.407 3327.38 812.385 3326.98 813.831C3319.69 803.417 3318.83 776.341 3318.23 763.699Z"/></svg>